<?xml version="1.0" encoding="UTF-8" standalone="no"?>
<!DOCTYPE svg PUBLIC "-//W3C//DTD SVG 1.1//EN" "http://www.w3.org/Graphics/SVG/1.1/DTD/svg11.dtd">
<svg width="100%" height="100%" viewBox="0 0 2084 2084" version="1.1" xmlns="http://www.w3.org/2000/svg" xmlns:xlink="http://www.w3.org/1999/xlink" xml:space="preserve" xmlns:serif="http://www.serif.com/" style="fill-rule:evenodd;clip-rule:evenodd;stroke-linejoin:round;stroke-miterlimit:2;">
    <g id="MECHANICON" transform="matrix(4.16667,0,0,4.16667,0,0)">
        <g transform="matrix(1,0,0,1,55.0605,169.37)">
            <path d="M0,-99.011L13.628,-99.011L31.845,-46.585L32.123,-46.585L50.2,-99.011L63.968,-99.011L63.968,0L49.783,0L49.783,-60.213L49.505,-60.213L35.46,-17.661L28.368,-17.661L14.462,-60.213L14.185,-60.213L14.185,0L0,0L0,-99.011Z" style="fill:rgb(3,4,4);fill-rule:nonzero;"/>
        </g>
        <g transform="matrix(1,0,0,1,133.073,169.37)">
            <path d="M0,-99.011L42.274,-99.011L42.274,-85.661L14.185,-85.661L14.185,-56.597L38.658,-56.597L38.658,-43.248L14.185,-43.248L14.185,-14.184L42.274,-14.184L42.274,0L0,0L0,-99.011Z" style="fill:rgb(3,4,4);fill-rule:nonzero;"/>
        </g>
        <g transform="matrix(1,0,0,1,230.275,92.4708)">
            <path d="M0,54.789C0,57.848 -0.58,60.768 -1.738,63.55C-2.898,66.331 -4.498,68.765 -6.536,70.85C-8.576,72.936 -10.964,74.605 -13.697,75.856C-16.434,77.108 -19.377,77.734 -22.528,77.734C-25.218,77.734 -27.951,77.362 -30.732,76.621C-33.514,75.88 -36.017,74.605 -38.241,72.797C-40.467,70.989 -42.298,68.603 -43.734,65.636C-45.173,62.67 -45.89,58.915 -45.89,54.372L-45.89,-0.14C-45.89,-3.384 -45.334,-6.398 -44.222,-9.179C-43.108,-11.96 -41.533,-14.37 -39.493,-16.41C-37.455,-18.448 -35.021,-20.047 -32.192,-21.207C-29.366,-22.365 -26.237,-22.945 -22.806,-22.945C-19.562,-22.945 -16.549,-22.365 -13.768,-21.207C-10.986,-20.047 -8.576,-18.426 -6.536,-16.34C-4.498,-14.254 -2.898,-11.751 -1.738,-8.831C-0.58,-5.911 0,-2.734 0,0.695L0,6.257L-14.185,6.257L-14.185,1.529C-14.185,-1.252 -14.973,-3.662 -16.549,-5.702C-18.126,-7.74 -20.258,-8.761 -22.945,-8.761C-26.47,-8.761 -28.81,-7.671 -29.968,-5.494C-31.128,-3.314 -31.706,-0.557 -31.706,2.781L-31.706,53.398C-31.706,56.273 -31.08,58.683 -29.828,60.629C-28.577,62.576 -26.33,63.55 -23.084,63.55C-22.158,63.55 -21.161,63.389 -20.095,63.063C-19.029,62.739 -18.057,62.207 -17.174,61.464C-16.294,60.723 -15.575,59.704 -15.019,58.404C-14.463,57.107 -14.185,55.484 -14.185,53.538L-14.185,48.67L0,48.67L0,54.789Z" style="fill:rgb(3,4,4);fill-rule:nonzero;"/>
        </g>
        <g transform="matrix(1,0,0,1,242.512,169.37)">
            <path d="M0,-99.011L14.185,-99.011L14.185,-56.597L31.706,-56.597L31.706,-99.011L45.89,-99.011L45.89,0L31.706,0L31.706,-44.082L14.185,-44.082L14.185,0L0,0L0,-99.011Z" style="fill:rgb(3,4,4);fill-rule:nonzero;"/>
        </g>
        <g transform="matrix(1,0,0,1,324.139,140.863)">
            <path d="M0,-41.996L-0.278,-41.996L-7.231,-6.119L6.953,-6.119L0,-41.996ZM-5.979,-70.503L5.841,-70.503L27.951,28.507L13.767,28.507L9.595,7.231L-9.734,7.231L-13.906,28.507L-28.09,28.507L-5.979,-70.503Z" style="fill:rgb(3,4,4);fill-rule:nonzero;"/>
        </g>
        <g transform="matrix(1,0,0,1,361.962,169.37)">
            <path d="M0,-99.011L13.628,-99.011L35.044,-39.354L35.321,-39.354L35.321,-99.011L49.506,-99.011L49.506,0L36.156,0L14.463,-59.518L14.185,-59.518L14.185,0L0,0L0,-99.011Z" style="fill:rgb(3,4,4);fill-rule:nonzero;"/>
        </g>
        <g transform="matrix(1,0,0,1,0,-260.271)">
            <rect x="425.371" y="330.63" width="14.185" height="99.011" style="fill:rgb(3,4,4);"/>
        </g>
        <g transform="matrix(1,0,0,1,100.116,207.268)">
            <path d="M0,54.79C0,57.85 -0.58,60.769 -1.738,63.551C-2.898,66.332 -4.498,68.766 -6.536,70.852C-8.576,72.937 -10.964,74.605 -13.697,75.857C-16.434,77.109 -19.377,77.734 -22.528,77.734C-25.218,77.734 -27.951,77.363 -30.732,76.622C-33.514,75.881 -36.017,74.605 -38.241,72.798C-40.467,70.99 -42.298,68.604 -43.734,65.637C-45.173,62.671 -45.89,58.916 -45.89,54.373L-45.89,-0.139C-45.89,-3.383 -45.334,-6.397 -44.222,-9.178C-43.108,-11.959 -41.533,-14.369 -39.493,-16.409C-37.455,-18.447 -35.021,-20.046 -32.192,-21.206C-29.366,-22.364 -26.237,-22.944 -22.806,-22.944C-19.562,-22.944 -16.549,-22.364 -13.768,-21.206C-10.986,-20.046 -8.576,-18.425 -6.536,-16.339C-4.498,-14.253 -2.898,-11.75 -1.738,-8.83C-0.58,-5.91 0,-2.733 0,0.696L0,6.258L-14.185,6.258L-14.185,1.53C-14.185,-1.251 -14.973,-3.661 -16.549,-5.701C-18.126,-7.739 -20.258,-8.76 -22.945,-8.76C-26.47,-8.76 -28.81,-7.67 -29.968,-5.493C-31.128,-3.313 -31.706,-0.556 -31.706,2.781L-31.706,53.399C-31.706,56.273 -31.08,58.684 -29.828,60.631C-28.577,62.577 -26.33,63.551 -23.084,63.551C-22.158,63.551 -21.161,63.39 -20.095,63.063C-19.029,62.74 -18.057,62.208 -17.174,61.465C-16.294,60.724 -15.575,59.705 -15.019,58.405C-14.463,57.108 -14.185,55.485 -14.185,53.538L-14.185,48.671L0,48.671L0,54.79Z" style="fill:rgb(3,4,4);fill-rule:nonzero;"/>
        </g>
        <g transform="matrix(1,0,0,1,125.702,208.52)">
            <path d="M0,52.286C0,55.717 0.95,58.244 2.851,59.865C4.75,61.488 6.999,62.299 9.596,62.299C12.189,62.299 14.438,61.488 16.34,59.865C18.238,58.244 19.19,55.717 19.19,52.286L19.19,-0C19.19,-3.429 18.238,-5.956 16.34,-7.579C14.438,-9.2 12.189,-10.012 9.596,-10.012C6.999,-10.012 4.75,-9.2 2.851,-7.579C0.95,-5.956 0,-3.429 0,-0L0,52.286ZM-14.184,-0C-14.184,-3.985 -13.488,-7.509 -12.098,-10.569C-10.707,-13.628 -8.878,-16.153 -6.605,-18.148C-4.335,-20.14 -1.786,-21.646 1.043,-22.667C3.87,-23.686 6.721,-24.196 9.596,-24.196C12.468,-24.196 15.318,-23.686 18.147,-22.667C20.975,-21.646 23.523,-20.14 25.796,-18.148C28.066,-16.153 29.898,-13.628 31.289,-10.569C32.68,-7.509 33.375,-3.985 33.375,-0L33.375,52.286C33.375,56.367 32.68,59.913 31.289,62.925C29.898,65.938 28.066,68.441 25.796,70.433C23.523,72.429 20.975,73.934 18.147,74.953C15.318,75.973 12.468,76.482 9.596,76.482C6.721,76.482 3.87,75.973 1.043,74.953C-1.786,73.934 -4.335,72.429 -6.605,70.433C-8.878,68.441 -10.707,65.938 -12.098,62.925C-13.488,59.913 -14.184,56.367 -14.184,52.286L-14.184,-0Z" style="fill:rgb(3,4,4);fill-rule:nonzero;"/>
        </g>
        <g transform="matrix(1,0,0,1,171.729,284.168)">
            <path d="M0,-99.011L13.628,-99.011L35.044,-39.354L35.321,-39.354L35.321,-99.011L49.506,-99.011L49.506,0L36.156,0L14.463,-59.518L14.185,-59.518L14.185,0L0,0L0,-99.011Z" style="fill:rgb(3,4,4);fill-rule:nonzero;"/>
        </g>
        <g id="enter-key" transform="matrix(1,0,0,1,401.701,260.475)">
            <path d="M0,110.718L-118.663,110.718L-91.274,138.111L-101.927,148.764L-147.579,103.112L-101.927,57.461L-91.274,68.114L-118.663,95.504L-15.218,95.504L-15.218,35.584L0,35.584L0,110.718ZM-166.737,-75.918L-166.737,34.801L-346.694,34.801L-346.694,174.406C-346.694,181.158 -341.074,186.636 -334.14,186.636L25.622,186.636C32.55,186.636 38.17,181.158 38.17,174.406L38.17,-75.918L-166.737,-75.918Z" style="fill:rgb(3,4,4);fill-rule:nonzero;"/>
        </g>
    </g>
</svg>
