<?xml version="1.0" encoding="UTF-8" standalone="no"?>
<!DOCTYPE svg PUBLIC "-//W3C//DTD SVG 1.1//EN" "http://www.w3.org/Graphics/SVG/1.1/DTD/svg11.dtd">
<svg width="100%" height="100%" viewBox="0 0 54 54" version="1.1" xmlns="http://www.w3.org/2000/svg" xmlns:xlink="http://www.w3.org/1999/xlink" xml:space="preserve" xmlns:serif="http://www.serif.com/" style="fill-rule:evenodd;clip-rule:evenodd;stroke-linejoin:round;stroke-miterlimit:2;">
    <g>
        <rect x="-0.2" y="0.1" width="53.8" height="53.4" style="fill:none;"/>
        <g transform="matrix(0.113603,0,0,0.113603,-1.40081,-2.67246)">
            <path d="M416.25,107.695C376.445,75.664 313.477,70.234 310.781,70.039C306.602,69.688 302.617,72.031 300.898,75.898C300.742,76.133 299.375,79.297 297.852,84.219C324.18,88.672 356.523,97.617 385.781,115.781C390.469,118.672 391.914,124.844 389.023,129.531C387.109,132.617 383.867,134.297 380.508,134.297C378.711,134.297 376.875,133.789 375.234,132.773C324.922,101.563 262.109,100 250,100C237.891,100 175.039,101.563 124.766,132.773C120.078,135.703 113.906,134.258 111.016,129.57C108.086,124.844 109.531,118.711 114.219,115.781C143.477,97.656 175.82,88.672 202.148,84.258C200.625,79.297 199.258,76.172 199.141,75.898C197.383,72.031 193.438,69.609 189.219,70.039C186.523,70.234 123.555,75.664 83.203,108.125C62.148,127.617 20,241.523 20,340C20,341.758 20.469,343.438 21.328,344.961C50.391,396.055 129.727,409.414 147.813,410L148.125,410C151.328,410 154.336,408.477 156.211,405.898L174.492,380.742C125.156,368.008 99.961,346.367 98.516,345.078C94.375,341.445 93.984,335.117 97.656,330.977C101.289,326.836 107.617,326.445 111.758,330.078C112.344,330.625 158.75,370 250,370C341.406,370 387.813,330.469 388.281,330.078C392.422,326.484 398.711,326.836 402.383,331.016C406.016,335.156 405.625,341.445 401.484,345.078C400.039,346.367 374.844,368.008 325.508,380.742L343.789,405.898C345.664,408.477 348.672,410 351.875,410L352.188,410C370.273,409.414 449.609,396.055 478.672,344.961C479.531,343.438 480,341.758 480,340C480,241.523 437.852,127.617 416.25,107.695ZM185,300C165.664,300 150,282.109 150,260C150,237.891 165.664,220 185,220C204.336,220 220,237.891 220,260C220,282.109 204.336,300 185,300ZM315,300C295.664,300 280,282.109 280,260C280,237.891 295.664,220 315,220C334.336,220 350,237.891 350,260C350,282.109 334.336,300 315,300Z" style="fill:rgb(248,248,242);fill-rule:nonzero;"/>
        </g>
    </g>
</svg>
