<?xml version="1.0" encoding="UTF-8" standalone="no"?>
<!DOCTYPE svg PUBLIC "-//W3C//DTD SVG 1.1//EN" "http://www.w3.org/Graphics/SVG/1.1/DTD/svg11.dtd">
<svg width="100%" height="100%" viewBox="0 0 54 54" version="1.1" xmlns="http://www.w3.org/2000/svg" xmlns:xlink="http://www.w3.org/1999/xlink" xml:space="preserve" xmlns:serif="http://www.serif.com/" style="fill-rule:evenodd;clip-rule:evenodd;stroke-linejoin:round;stroke-miterlimit:2;">
    <g>
        <rect x="-0.2" y="0.1" width="53.8" height="53.4" style="fill:none;"/>
        <path d="M5.1,24.8C5.2,25.4 5.1,25.9 4.8,26.4C4.5,26.9 4,27.2 3.4,27.3C2.8,27.4 2.3,27.3 1.8,26.9C1.3,26.6 1,26.1 0.9,25.5C0.8,24.9 0.9,24.4 1.2,23.9C1.6,23.4 2,23.1 2.6,23C3.2,22.9 3.7,23 4.2,23.3C4.7,23.7 5,24.2 5.1,24.8ZM43.9,28.4C45.2,30.5 45.6,32.8 45.1,35.2C44.6,37.6 43.4,39.6 41.3,41C39.6,42.2 37.8,42.7 35.7,42.7C35.3,44.2 34.5,45.4 33.3,46.2C32.1,47.1 30.8,47.5 29.3,47.4C27.8,47.4 26.5,46.8 25.4,45.8C25.2,46 25.1,46.1 25,46.1C23.1,47.4 21,47.9 18.7,47.5C16.4,47.1 14.6,45.9 13.3,44C12.4,42.6 11.9,41.1 11.8,39.4C10.3,39.1 8.9,38.5 7.8,37.4C6.7,36.3 5.9,35.2 5.6,33.8C5.2,32.5 5.2,31.1 5.5,29.6C5.9,28.1 6.6,26.8 7.8,25.7C7.1,24.6 6.8,23.4 6.7,22.1C6.7,20.8 6.9,19.7 7.4,18.6C7.9,17.5 8.6,16.6 9.6,15.9C10.6,15.1 11.7,14.7 13,14.5C13.6,12.9 14.5,11.5 15.8,10.4C17,9.2 18.4,8.4 19.9,7.8C21.4,7.2 22.9,7.1 24.6,7.3C26.3,7.5 27.7,8.1 29.1,9.2C30.4,8.8 31.7,8.6 33,8.7C34.3,8.8 35.5,9.1 36.6,9.7C37.7,10.3 38.7,11 39.5,11.9C40.3,12.8 40.9,13.9 41.4,15.1C41.8,16.4 42,17.7 41.9,19C42.9,19.3 43.7,19.8 44.3,20.6C45,21.4 45.4,22.2 45.6,23.1C45.8,24 45.7,24.9 45.4,25.9C45.2,27 44.7,27.8 43.9,28.4ZM10.1,41.1C10.3,41.2 10.5,41.5 10.5,41.7C10.6,42 10.5,42.2 10.4,42.5C10.3,42.7 10,42.9 9.8,42.9C9.5,43 9.3,42.9 9.1,42.8C8.9,42.7 8.7,42.4 8.7,42.2C8.6,41.9 8.7,41.7 8.8,41.4C8.9,41.2 9.2,41 9.4,41C9.6,40.9 9.9,40.9 10.1,41.1ZM12.6,10C12.9,10.4 12.9,10.8 12.9,11.2C12.8,11.7 12.6,12 12.2,12.3C11.8,12.6 11.4,12.6 11,12.6C10.5,12.5 10.2,12.3 10,11.9C9.7,11.5 9.7,11.1 9.7,10.7C9.8,10.2 10,9.9 10.4,9.6C10.8,9.3 11.2,9.3 11.6,9.3C12,9.4 12.3,9.6 12.6,10ZM37.1,35.7C37,35.3 36.8,34.9 36.3,34.8C35.9,34.6 35.4,34.5 34.9,34.5C34.4,34.5 34,34.4 33.5,34.2C33,34 32.8,33.6 32.8,33.1C32.7,32.2 33,30.9 33.7,29.2C34.4,27.5 35.1,25.8 35.8,24.1C36.5,22.4 36.8,21.3 36.7,20.5C36.4,18.6 35.4,17.7 33.4,17.6C32.6,17.6 31.9,17.7 31.3,18L31.2,18.1C31.1,18.1 31.1,18.2 31.1,18.2C31.1,18.2 31,18.2 31,18.3C30.9,18.3 30.9,18.3 30.9,18.4L30.6,18.4C30.6,18.4 30.5,18.3 30.4,18.3C30.3,18.3 30.3,18.2 30.2,18.2C30.1,18.2 30.1,18.1 29.9,18L29.4,17.5C29.3,17.4 29.2,17.3 29.1,17.3C29,17.3 28.9,17.2 28.8,17.1C28.7,17 28.6,17 28.5,17C28.4,17 28.3,16.9 28.2,16.9C27.6,16.8 27.2,16.8 26.9,17C26.6,17.2 26.1,17.4 25.6,17.9C25.6,17.9 25.5,18 25.3,18.1C25.1,18.2 25,18.3 25,18.4C24.9,18.5 24.8,18.6 24.6,18.7C24.4,18.8 24.3,18.9 24.1,18.9C24,18.9 23.8,18.9 23.6,18.8C22.6,18.3 21.8,17.9 21.3,17.7C20.5,17.4 19.7,17.4 18.7,17.8C17.7,18.2 17,18.8 16.6,19.6C16.3,20.1 15.9,21 15.5,22.3C15,23.6 14.6,24.8 14.3,26C14,27.2 13.6,28.4 13.2,29.7C12.8,31 12.6,31.7 12.6,31.7C12.2,33 12.4,34.1 13.1,35C13.8,35.9 14.9,36.4 16.2,36.3C16.8,36.3 17.2,36.1 17.6,35.9C18,35.7 18.3,35.2 18.7,34.6C18.8,34.4 19.6,32.5 20.9,29C22.2,25.5 23,23.7 23,23.6C23.1,23.4 23.3,23.2 23.6,23.1C23.9,23 24.2,23 24.4,23.1C24.9,23.4 25.1,23.9 25,24.6C25,24.9 24.5,26.2 23.6,28.5C22.7,30.8 22.2,32 22.2,32.2C22.1,32.9 22.3,33.4 22.7,33.8C23.2,34.1 23.7,34.2 24.4,34C25.1,33.8 25.6,33.3 25.9,32.6C26,32.5 26.4,31.6 27.2,30C28,28.4 28.7,26.9 29.5,25.4C30.3,23.9 30.7,23.1 30.8,22.9C31.2,22.4 31.6,22.1 31.9,22.1C32.4,22.1 32.7,22.5 32.6,23.2C32.6,23.5 32,24.9 30.8,27.3C29.6,29.7 29,31.2 28.8,31.8C28.6,32.8 28.7,33.7 29.2,34.7C29.7,35.6 30.4,36.3 31.3,36.8C31.6,37 32.1,37.1 32.7,37.2C33.3,37.3 34,37.4 34.7,37.4C35.4,37.4 36,37.3 36.4,37C37,36.8 37.2,36.3 37.1,35.7ZM17,2.2C17.1,2.5 17,2.8 16.9,3.1C16.7,3.4 16.5,3.5 16.2,3.6C15.9,3.7 15.6,3.6 15.3,3.4C15,3.2 14.8,3 14.8,2.7C14.7,2.4 14.8,2.1 15,1.8C15.2,1.5 15.4,1.4 15.7,1.3C16,1.2 16.3,1.3 16.6,1.5C16.8,1.6 16.9,1.9 17,2.2ZM26.4,49.1C26.6,49.4 26.7,49.8 26.6,50.1C26.5,50.5 26.3,50.8 26,51C25.7,51.2 25.3,51.3 25,51.2C24.6,51.1 24.3,50.9 24.1,50.6C23.9,50.3 23.8,49.9 23.9,49.6C24,49.2 24.2,48.9 24.5,48.7C24.8,48.5 25.2,48.4 25.5,48.5C25.8,48.6 26.2,48.7 26.4,49.1ZM31.6,3.7C31.9,4.2 32,4.7 31.8,5.3C31.6,5.9 31.3,6.3 30.8,6.6C30.3,6.9 29.8,7 29.2,6.8C28.6,6.7 28.2,6.3 27.9,5.8C27.6,5.3 27.5,4.7 27.7,4.2C27.8,3.6 28.2,3.2 28.7,2.9C29.2,2.6 29.7,2.5 30.3,2.6C30.8,2.9 31.3,3.2 31.6,3.7ZM40.8,45.3C41.2,45.8 41.3,46.4 41.2,47C41.1,47.6 40.8,48.1 40.3,48.5C39.8,48.9 39.2,49 38.6,48.9C38,48.8 37.5,48.5 37.2,48C36.8,47.5 36.7,46.9 36.8,46.3C36.9,45.7 37.2,45.2 37.7,44.8C38.2,44.4 38.8,44.3 39.4,44.4C39.9,44.5 40.4,44.8 40.8,45.3ZM47,15.3C47.3,15.7 47.4,16.2 47.3,16.7C47.2,17.2 47,17.6 46.6,17.9C46.2,18.2 45.7,18.3 45.2,18.2C44.7,18.1 44.3,17.9 44,17.4C43.7,17 43.6,16.5 43.7,16C43.8,15.5 44,15.1 44.5,14.8C44.9,14.5 45.4,14.4 45.9,14.5C46.4,14.6 46.8,14.9 47,15.3ZM50.1,28.6C50.2,29 50.1,29.3 49.9,29.6C49.7,29.9 49.4,30.1 49,30.2C48.6,30.3 48.3,30.2 48,30C47.7,29.8 47.5,29.5 47.4,29.1C47.3,28.7 47.4,28.4 47.6,28.1C47.8,27.8 48.1,27.6 48.5,27.5C48.9,27.4 49.2,27.5 49.5,27.7C49.8,28 50,28.3 50.1,28.6ZM52.4,22C52.5,22.3 52.4,22.5 52.3,22.8C52.2,23 51.9,23.2 51.7,23.3C51.4,23.4 51.2,23.3 50.9,23.1C50.7,22.9 50.5,22.7 50.5,22.5C50.4,22.2 50.5,22 50.6,21.7C50.7,21.5 51,21.3 51.2,21.3C51.5,21.2 51.7,21.3 51.9,21.4C52.2,21.5 52.3,21.7 52.4,22Z" style="fill:rgb(248,248,242);fill-rule:nonzero;"/>
    </g>
</svg>
